<svg width="1193" height="242" viewBox="0 0 1193 242" fill="none" xmlns="http://www.w3.org/2000/svg" role="img" aria-labelledby="logo-title">
<title id="logo-title">CHC Advocacia</title>
<path d="M578.702 146.734C573.782 146.734 569.624 145.755 566.227 143.799C562.857 141.815 560.261 138.553 558.44 134.014C556.619 129.476 555.709 123.442 555.709 115.914C555.709 108.494 556.619 102.501 558.44 97.9354C560.288 93.3695 562.938 90.0673 566.39 88.029C569.869 85.9634 574.176 84.9307 579.313 84.9307C582.982 84.9307 586.597 85.447 590.157 86.4798V90.8419C588.282 90.244 586.475 89.8363 584.735 89.6189C583.023 89.3743 581.188 89.252 579.232 89.252C575.073 89.252 571.649 90.0809 568.958 91.7388C566.268 93.3695 564.216 96.1281 562.802 100.015C561.416 103.901 560.723 109.146 560.723 115.751C560.723 122.491 561.43 127.818 562.843 131.731C564.256 135.645 566.295 138.404 568.958 140.007C571.622 141.611 574.965 142.412 578.987 142.412C580.808 142.412 582.602 142.249 584.368 141.923C586.135 141.597 588.064 141.067 590.157 140.333V144.736C586.461 146.068 582.642 146.734 578.702 146.734ZM632.273 146L625.791 125.616H603.043L596.602 146H591.791L611.196 85.6645H617.801L637.206 146H632.273ZM604.429 121.295H624.446L614.417 89.782L604.429 121.295ZM677.983 146L659.923 120.194C658.755 120.303 657.355 120.357 655.724 120.357C653.142 120.357 650.914 120.276 649.038 120.113V146H644.309V86.276C648.903 85.4606 653.319 85.053 657.559 85.053C664.571 85.053 669.803 86.507 673.254 89.4151C676.733 92.3231 678.472 96.6716 678.472 102.461C678.527 107.054 677.385 110.777 675.048 113.631C672.711 116.485 669.232 118.428 664.612 119.461L683.283 146H677.983ZM655.52 116.24C661.88 116.24 666.528 115.139 669.463 112.938C672.398 110.709 673.866 107.244 673.866 102.542C673.866 97.9762 672.588 94.6197 670.034 92.4726C667.479 90.2983 663.375 89.2112 657.722 89.2112C654.596 89.2112 651.702 89.4422 649.038 89.9043V115.995C651.593 116.158 653.754 116.24 655.52 116.24ZM690.969 146V85.6645H695.698V141.597H721.748V146H690.969ZM745.102 146.734C738.471 146.734 733.347 144.301 729.733 139.436C726.145 134.544 724.352 126.676 724.352 115.832C724.352 104.988 726.145 97.1336 729.733 92.2688C733.347 87.3767 738.471 84.9307 745.102 84.9307C751.734 84.9307 756.843 87.3767 760.431 92.2688C764.018 97.1336 765.812 104.988 765.812 115.832C765.812 126.676 764.018 134.544 760.431 139.436C756.843 144.301 751.734 146.734 745.102 146.734ZM745.102 142.453C748.445 142.453 751.271 141.638 753.582 140.007C755.892 138.349 757.672 135.577 758.922 131.691C760.2 127.804 760.838 122.586 760.838 116.036C760.838 109.35 760.2 104.037 758.922 100.096C757.672 96.1552 755.892 93.3559 753.582 91.698C751.271 90.0401 748.445 89.2112 745.102 89.2112C741.732 89.2112 738.892 90.0401 736.582 91.698C734.272 93.3287 732.478 96.0873 731.2 99.9738C729.95 103.86 729.325 109.078 729.325 115.628C729.325 122.314 729.95 127.628 731.2 131.568C732.478 135.509 734.272 138.309 736.582 139.966C738.892 141.624 741.732 142.453 745.102 142.453ZM784.859 146.734C782.984 146.734 780.973 146.544 778.825 146.163C776.706 145.81 774.694 145.293 772.792 144.614V140.293C777.059 141.733 781.136 142.453 785.022 142.453C789.479 142.453 792.849 141.461 795.132 139.477C797.415 137.466 798.557 134.49 798.557 130.549C798.557 128.293 798.19 126.418 797.456 124.923C796.722 123.401 795.567 122.097 793.991 121.01C792.415 119.923 790.267 118.903 787.55 117.952L785.022 117.096C780.728 115.601 777.48 113.563 775.279 110.981C773.104 108.372 772.017 105.015 772.017 100.911C772.017 97.5957 772.724 94.742 774.137 92.3503C775.551 89.9586 777.643 88.1241 780.415 86.8467C783.188 85.5693 786.585 84.9307 790.607 84.9307C792.428 84.9307 794.29 85.0665 796.192 85.3383C798.095 85.5829 799.739 85.9362 801.125 86.3983V90.7604C797.864 89.7276 794.399 89.2112 790.73 89.2112C786.082 89.2112 782.617 90.1896 780.334 92.1465C778.051 94.1033 776.909 96.9298 776.909 100.626C776.909 102.773 777.249 104.58 777.929 106.048C778.635 107.489 779.75 108.739 781.272 109.799C782.793 110.859 784.859 111.837 787.468 112.734L789.996 113.631C794.48 115.153 797.85 117.245 800.106 119.909C802.362 122.545 803.49 125.97 803.49 130.182C803.49 135.455 801.873 139.532 798.638 142.412C795.404 145.293 790.811 146.734 784.859 146.734ZM829.275 146V85.6645H834.004V112.775H862.704V85.6645H867.474V146H862.704V117.259H834.004V146H829.275ZM884.645 141.679H911.836V146H879.916V85.6645H911.429V89.9858H884.645V112.856H907.678V117.178H884.645V141.679ZM954.261 85.6645H958.786V146H953.772L924.093 93.6956V146H919.568V85.6645H924.582L954.261 137.969V85.6645ZM1004.92 146L986.858 120.194C985.689 120.303 984.289 120.357 982.659 120.357C980.077 120.357 977.848 120.276 975.973 120.113V146H971.244V86.276C975.837 85.4606 980.253 85.053 984.493 85.053C991.505 85.053 996.737 86.507 1000.19 89.4151C1003.67 92.3231 1005.41 96.6716 1005.41 102.461C1005.46 107.054 1004.32 110.777 1001.98 113.631C999.645 116.485 996.166 118.428 991.546 119.461L1010.22 146H1004.92ZM982.455 116.24C988.814 116.24 993.462 115.139 996.397 112.938C999.332 110.709 1000.8 107.244 1000.8 102.542C1000.8 97.9762 999.523 94.6197 996.968 92.4726C994.413 90.2983 990.309 89.2112 984.656 89.2112C981.531 89.2112 978.636 89.4422 975.973 89.9043V115.995C978.527 116.158 980.688 116.24 982.455 116.24ZM1017.9 146V85.6645H1022.63V146H1017.9ZM1074.03 115.832C1074.03 125.644 1072.43 133.145 1069.22 138.336C1066.04 143.5 1061.3 146.177 1055 146.367C1059.97 148.161 1066 149.424 1073.1 150.158L1072.24 154.398C1061.94 152.985 1053.95 150.878 1048.27 148.079C1042.62 145.307 1038.58 141.393 1036.16 136.338C1033.77 131.283 1032.57 124.448 1032.57 115.832C1032.57 104.988 1034.37 97.1336 1037.96 92.2688C1041.57 87.3767 1046.69 84.9307 1053.32 84.9307C1059.96 84.9307 1065.07 87.3767 1068.65 92.2688C1072.24 97.1336 1074.03 104.988 1074.03 115.832ZM1037.55 115.628C1037.55 122.314 1038.17 127.628 1039.42 131.568C1040.7 135.509 1042.49 138.309 1044.8 139.966C1047.11 141.624 1049.95 142.453 1053.32 142.453C1056.67 142.453 1059.49 141.638 1061.8 140.007C1064.11 138.349 1065.89 135.577 1067.14 131.691C1068.42 127.804 1069.06 122.586 1069.06 116.036C1069.06 109.35 1068.42 104.037 1067.14 100.096C1065.89 96.1552 1064.11 93.3559 1061.8 91.698C1059.49 90.0401 1056.67 89.2112 1053.32 89.2112C1049.95 89.2112 1047.11 90.0401 1044.8 91.698C1042.49 93.3287 1040.7 96.0873 1039.42 99.9738C1038.17 103.86 1037.55 109.078 1037.55 115.628ZM1102.66 146.734C1098.26 146.734 1094.66 145.973 1091.86 144.451C1089.06 142.902 1086.99 140.551 1085.66 137.398C1084.33 134.245 1083.66 130.196 1083.66 125.249V85.6645H1088.43V125.861C1088.43 131.568 1089.55 135.767 1091.78 138.458C1094.03 141.122 1097.66 142.453 1102.66 142.453C1107.66 142.453 1111.28 141.122 1113.51 138.458C1115.76 135.767 1116.89 131.568 1116.89 125.861V85.6645H1121.54V125.249C1121.54 130.196 1120.87 134.245 1119.54 137.398C1118.24 140.551 1116.2 142.902 1113.42 144.451C1110.65 145.973 1107.06 146.734 1102.66 146.734ZM1138.4 141.679H1165.6V146H1133.68V85.6645H1165.19V89.9858H1138.4V112.856H1161.44V117.178H1138.4V141.679ZM578.702 238.734C573.782 238.734 569.624 237.755 566.227 235.799C562.857 233.815 560.261 230.553 558.44 226.014C556.619 221.476 555.709 215.442 555.709 207.914C555.709 200.494 556.619 194.501 558.44 189.935C560.288 185.369 562.938 182.067 566.39 180.029C569.869 177.963 574.176 176.931 579.313 176.931C582.982 176.931 586.597 177.447 590.157 178.48V182.842C588.282 182.244 586.475 181.836 584.735 181.619C583.023 181.374 581.188 181.252 579.232 181.252C575.073 181.252 571.649 182.081 568.958 183.739C566.268 185.369 564.216 188.128 562.802 192.015C561.416 195.901 560.723 201.146 560.723 207.751C560.723 214.491 561.43 219.818 562.843 223.731C564.256 227.645 566.295 230.404 568.958 232.007C571.622 233.611 574.965 234.412 578.987 234.412C580.808 234.412 582.602 234.249 584.368 233.923C586.135 233.597 588.064 233.067 590.157 232.333V236.736C586.461 238.068 582.642 238.734 578.702 238.734ZM630.846 238L612.786 212.194C611.618 212.303 610.218 212.357 608.587 212.357C606.005 212.357 603.777 212.276 601.901 212.113V238H597.172V178.276C601.765 177.461 606.182 177.053 610.422 177.053C617.434 177.053 622.665 178.507 626.117 181.415C629.596 184.323 631.335 188.672 631.335 194.461C631.39 199.054 630.248 202.777 627.911 205.631C625.574 208.485 622.095 210.428 617.474 211.461L636.146 238H630.846ZM608.383 208.24C614.743 208.24 619.39 207.139 622.326 204.938C625.261 202.709 626.729 199.244 626.729 194.542C626.729 189.976 625.451 186.62 622.896 184.473C620.342 182.298 616.238 181.211 610.585 181.211C607.459 181.211 604.565 181.442 601.901 181.904V207.995C604.456 208.158 606.617 208.24 608.383 208.24ZM660.911 238.734C656.508 238.734 652.907 237.973 650.107 236.451C647.308 234.902 645.242 232.551 643.911 229.398C642.579 226.245 641.913 222.196 641.913 217.249V177.664H646.683V217.861C646.683 223.568 647.797 227.767 650.026 230.458C652.282 233.122 655.91 234.453 660.911 234.453C665.911 234.453 669.526 233.122 671.755 230.458C674.011 227.767 675.138 223.568 675.138 217.861V177.664H679.786V217.249C679.786 222.196 679.12 226.245 677.788 229.398C676.484 232.551 674.445 234.902 671.673 236.451C668.901 237.973 665.314 238.734 660.911 238.734ZM693.963 233.638H723.274V238H687.807V235.269L716.711 182.027H688.215V177.664H722.867V180.396L693.963 233.638ZM780.739 238L777.07 222.957H759.703L756.075 238H742.336L757.909 177.664H779.068L794.641 238H780.739ZM762.557 210.971H774.175L768.346 186.919L762.557 210.971ZM813.369 238.775C808.585 238.775 803.625 238.489 798.489 237.918V178.806C804.386 177.529 810.026 176.89 815.407 176.89C825.49 176.89 832.991 179.404 837.911 184.432C842.857 189.46 845.33 197.26 845.33 207.832C845.33 214.98 844.162 220.837 841.824 225.403C839.487 229.969 835.954 233.339 831.225 235.513C826.523 237.687 820.571 238.775 813.369 238.775ZM817.16 226.952C820.177 226.952 822.664 226.354 824.62 225.158C826.604 223.962 828.113 221.965 829.146 219.166C830.178 216.366 830.695 212.588 830.695 207.832C830.695 203.076 830.165 199.298 829.105 196.499C828.045 193.672 826.509 191.661 824.498 190.465C822.514 189.242 820.041 188.631 817.079 188.631C816.372 188.631 815.597 188.672 814.755 188.753C813.939 188.835 813.233 188.943 812.635 189.079V226.789C814.347 226.898 815.856 226.952 817.16 226.952ZM884.487 177.664H898.021L882.652 238H861.045L845.717 177.664H860.23L872.216 226.871L884.487 177.664ZM922.98 238.815C917.816 238.815 913.345 237.742 909.567 235.595C905.79 233.42 902.854 230.037 900.762 225.444C898.669 220.823 897.623 214.953 897.623 207.832C897.623 200.712 898.669 194.855 900.762 190.262C902.854 185.641 905.79 182.258 909.567 180.11C913.345 177.936 917.816 176.849 922.98 176.849C928.144 176.849 932.614 177.936 936.392 180.11C940.17 182.258 943.105 185.641 945.198 190.262C947.291 194.855 948.337 200.712 948.337 207.832C948.337 214.953 947.291 220.823 945.198 225.444C943.105 230.037 940.17 233.42 936.392 235.595C932.614 237.742 928.144 238.815 922.98 238.815ZM922.98 227.034C925.344 227.034 927.315 226.436 928.891 225.24C930.467 224.017 931.663 222.019 932.479 219.247C933.321 216.448 933.742 212.738 933.742 208.118C933.742 203.307 933.321 199.475 932.479 196.621C931.663 193.768 930.467 191.729 928.891 190.506C927.315 189.256 925.344 188.631 922.98 188.631C920.615 188.631 918.645 189.242 917.068 190.465C915.492 191.661 914.283 193.659 913.44 196.458C912.625 199.23 912.217 202.927 912.217 207.547C912.217 212.357 912.625 216.19 913.44 219.043C914.283 221.897 915.492 223.949 917.068 225.199C918.645 226.422 920.615 227.034 922.98 227.034ZM981.37 238.815C972.184 238.815 965.185 236.369 960.375 231.477C955.591 226.558 953.2 218.731 953.2 207.995C953.2 197.532 955.7 189.732 960.701 184.595C965.729 179.431 972.904 176.849 982.226 176.849C986.194 176.849 989.917 177.284 993.396 178.154V190.058C989.999 189.242 986.683 188.835 983.449 188.835C979.943 188.835 977.062 189.446 974.806 190.669C972.551 191.865 970.852 193.863 969.71 196.662C968.569 199.434 967.998 203.158 967.998 207.832C967.998 212.643 968.555 216.434 969.67 219.206C970.784 221.978 972.455 223.949 974.684 225.118C976.913 226.259 979.821 226.83 983.408 226.83C986.18 226.83 989.51 226.191 993.396 224.914V236.818C991.847 237.416 989.985 237.891 987.811 238.245C985.637 238.625 983.49 238.815 981.37 238.815ZM1032.99 238L1029.32 222.957H1011.95L1008.32 238H994.584L1010.16 177.664H1031.31L1046.89 238H1032.99ZM1014.8 210.971H1026.42L1020.59 186.919L1014.8 210.971ZM1076.12 238.815C1066.94 238.815 1059.94 236.369 1055.13 231.477C1050.34 226.558 1047.95 218.731 1047.95 207.995C1047.95 197.532 1050.45 189.732 1055.45 184.595C1060.48 179.431 1067.66 176.849 1076.98 176.849C1080.95 176.849 1084.67 177.284 1088.15 178.154V190.058C1084.75 189.242 1081.44 188.835 1078.2 188.835C1074.7 188.835 1071.81 189.446 1069.56 190.669C1067.3 191.865 1065.6 193.863 1064.46 196.662C1063.32 199.434 1062.75 203.158 1062.75 207.832C1062.75 212.643 1063.31 216.434 1064.42 219.206C1065.54 221.978 1067.21 223.949 1069.44 225.118C1071.66 226.259 1074.57 226.83 1078.16 226.83C1080.93 226.83 1084.26 226.191 1088.15 224.914V236.818C1086.6 237.416 1084.74 237.891 1082.56 238.245C1080.39 238.625 1078.24 238.815 1076.12 238.815ZM1093.49 238V177.664H1107.64V238H1093.49ZM1149.95 238L1146.28 222.957H1128.92L1125.29 238H1111.55L1127.12 177.664H1148.28L1163.86 238H1149.95ZM1131.77 210.971H1143.39L1137.56 186.919L1131.77 210.971Z" fill="#FFFFFF"/>
<path fill-rule="evenodd" clip-rule="evenodd" d="M167.238 0V237.018H234.71V0H167.238Z" fill="#FFFFFF"/>
<path fill-rule="evenodd" clip-rule="evenodd" d="M67.4746 84.7905C30.1878 84.7905 0 115.42 0 153.213V168.596C0 206.389 30.1878 237.018 67.4746 237.018V84.7905Z" fill="#FFFFFF"/>
<path fill-rule="evenodd" clip-rule="evenodd" d="M83.6025 84.7905C83.6025 122.583 113.824 153.213 151.108 153.213V84.7905H83.6025Z" fill="#FFFFFF"/>
<path fill-rule="evenodd" clip-rule="evenodd" d="M250.875 84.7905V152.974V153.213V237.018H318.346V152.974C318.211 115.282 288.057 84.7905 250.875 84.7905Z" fill="#FFFFFF"/>
<path fill-rule="evenodd" clip-rule="evenodd" d="M83.6025 168.596V237.018C120.886 237.018 151.108 206.389 151.108 168.596H83.6025Z" fill="#FFFFFF"/>
<path fill-rule="evenodd" clip-rule="evenodd" d="M401.983 84.7905C364.699 84.7905 334.478 115.42 334.478 153.213V168.596C334.478 206.389 364.699 237.018 401.983 237.018V84.7905Z" fill="#FFFFFF"/>
<path fill-rule="evenodd" clip-rule="evenodd" d="M418.111 84.7905C418.111 122.583 448.336 153.213 485.586 153.213V84.7905H418.111Z" fill="#FFFFFF"/>
<path fill-rule="evenodd" clip-rule="evenodd" d="M418.111 168.596V237.018C455.398 237.018 485.586 206.389 485.586 168.596H418.111Z" fill="#FFFFFF"/>
</svg>
